<svg width="20" height="18" viewBox="0 0 20 18" fill="none" xmlns="http://www.w3.org/2000/svg">
<path d="M13.2255 10.3496C13.2255 12.1282 11.7786 13.5751 10 13.5751C8.22137 13.5751 6.77503 12.1282 6.77503 10.3496C6.77503 8.57094 8.22137 7.12405 10 7.12405C11.7786 7.12405 13.2255 8.57149 13.2255 10.3496ZM20 5.76948V14.9308C20 16.1521 19.0098 17.1423 17.7885 17.1423H2.21153C0.990214 17.1423 0 16.1521 0 14.9308V5.76948C0 4.54816 0.990214 3.55795 2.21153 3.55795H4.93172V2.79276C4.93172 1.72403 5.79753 0.857666 6.86681 0.857666H13.1332C14.2025 0.857666 15.0683 1.72403 15.0683 2.79276V3.5574H17.7885C19.0098 3.55795 20 4.54816 20 5.76948ZM14.8842 10.3496C14.8842 7.65647 12.6931 5.4654 10 5.4654C7.30746 5.4654 5.11638 7.65647 5.11638 10.3496C5.11638 13.0427 7.30746 15.2337 10 15.2337C12.6931 15.2337 14.8842 13.0427 14.8842 10.3496Z" fill="white"/>
</svg>
