<svg width="20" height="20" viewBox="0 0 20 20" fill="none" xmlns="http://www.w3.org/2000/svg">
<path d="M10 0C4.478 0 0 4.478 0 10C0 15.522 4.478 20 10 20C15.522 20 20 15.522 20 10C20 4.478 15.522 0 10 0ZM10.2119 15.8223C10.2118 15.8223 10.2121 15.8223 10.2119 15.8223H10.2095C9.20776 15.8218 8.22342 15.5707 7.34924 15.094L4.17648 15.9261L5.02563 12.8255C4.5018 11.9182 4.22623 10.8888 4.22668 9.83429C4.22806 6.53534 6.91299 3.85147 10.2119 3.85147C11.8129 3.85208 13.3157 4.47525 14.4456 5.60608C15.5757 6.73706 16.1977 8.24036 16.1971 9.83902C16.1957 13.1381 13.5104 15.8223 10.2119 15.8223V15.8223Z" fill="url(#paint0_linear_563_5494)"/>
<path d="M10.2131 4.86206C7.46915 4.86206 5.23755 7.09274 5.23633 9.83475C5.23602 10.7744 5.49908 11.6895 5.99698 12.4812L6.11523 12.6694L5.61261 14.5045L7.49539 14.0108L7.67712 14.1185C8.44083 14.5717 9.31638 14.8114 10.209 14.8117H10.211C12.9529 14.8117 15.1844 12.5809 15.1857 9.83871C15.1861 8.50983 14.6692 7.26044 13.73 6.3205C12.7908 5.38055 11.5417 4.86252 10.2131 4.86206ZM13.1392 11.9728C13.0145 12.3219 12.4171 12.6407 12.1298 12.6837C11.8721 12.7222 11.5461 12.7382 11.1879 12.6245C10.9706 12.5555 10.6921 12.4635 10.3352 12.3096C8.83511 11.662 7.85535 10.152 7.78058 10.0522C7.70581 9.95239 7.16992 9.24149 7.16992 8.50555C7.16992 7.76978 7.55627 7.40799 7.6933 7.25845C7.83048 7.10876 7.99252 7.07138 8.09216 7.07138C8.1918 7.07138 8.2916 7.0723 8.37872 7.07657C8.47058 7.08115 8.59387 7.04163 8.71518 7.33322C8.83984 7.6326 9.13892 8.36838 9.1763 8.44315C9.21368 8.51807 9.23856 8.60535 9.18881 8.70514C9.13892 8.80493 8.97321 9.02023 8.81497 9.21646C8.7486 9.29871 8.66208 9.37195 8.74936 9.52164C8.83649 9.67117 9.13678 10.1608 9.58127 10.5573C10.1526 11.0666 10.6344 11.2244 10.784 11.2993C10.9333 11.3741 11.0206 11.3615 11.1079 11.2619C11.195 11.1621 11.4818 10.8253 11.5814 10.6757C11.681 10.526 11.7808 10.551 11.9178 10.6009C12.055 10.6506 12.7902 11.0124 12.9397 11.0872C13.0893 11.1621 13.1889 11.1995 13.2263 11.2619C13.2638 11.3243 13.2638 11.6235 13.1392 11.9728Z" fill="url(#paint1_linear_563_5494)"/>
<defs>
<linearGradient id="paint0_linear_563_5494" x1="2.98023e-07" y1="20" x2="24.1073" y2="10.9924" gradientUnits="userSpaceOnUse">
<stop stop-color="#3E83E1"/>
<stop offset="1" stop-color="#7B3EED"/>
</linearGradient>
<linearGradient id="paint1_linear_563_5494" x1="5.23633" y1="14.8117" x2="17.229" y2="10.3308" gradientUnits="userSpaceOnUse">
<stop stop-color="#3E83E1"/>
<stop offset="1" stop-color="#7B3EED"/>
</linearGradient>
</defs>
</svg>
